<svg width="160" height="72" xmlns="http://www.w3.org/2000/svg"><g fill="#000" fill-rule="nonzero"><path d="M44.973 45.296c2.773-.557 5.624-1.17 8.538-1.835l-5.925-16.236c-.894-2.501-1.315-4.033-1.315-5.82 0-2.756 2.63-4.952 6.366-4.952 3.105 0 5.315 1.991 5.999 4.901l6.012 19.388c1.018-.264 2.042-.534 3.07-.81l5.809-18.067c1-3.318 2.736-5.412 6.472-5.412s5.473 2.042 6.472 5.412l3.68 11.446a449.764 449.764 0 0 0 8.37-2.793l2.842-9.164c.684-2.91 2.893-4.9 5.998-4.9 3.683 0 6.367 2.246 6.367 6.023-.033.843-.301 1.708-.64 2.71a323.708 323.708 0 0 0 9.433-3.835c-.11-7.927-6.126-13.647-14.432-13.647-6.625 0-12.173 4.34-13.897 10.851-3.016-9.792-10.88-10.851-14.113-10.851-3.285 0-11.096 1.059-14.166 10.851-1.724-6.51-7.219-10.851-13.897-10.851-8.134 0-14.544 5.717-14.544 13.021 0 3.23.807 5.823 1.777 8.63l5.724 15.94zm114.802-39.81c-1.149-3.875-6.119-5.613-15.65-5.479-1.446.021-2.603 1.229-2.582 2.698.02 1.455 1.19 2.621 2.618 2.621h.038c8.683-.129 10.368 1.48 10.553 1.696-.032.25-.436 2.033-5.506 5.707-.313.226-.637.455-.971.687-1.197.825-1.507 2.48-.694 3.694a2.606 2.606 0 0 0 2.169 1.164c.506 0 1.018-.149 1.47-.46.368-.255.725-.507 1.069-.756 3.858-2.796 8.831-7.037 7.486-11.572zM6.108 53.288c-.59-.263-.803-.48-.862-.552.033-.263.493-2.292 6.639-6.505 3.432-2.353 7.953-4.92 13.437-7.63 1.301-.644 1.842-2.234 1.21-3.555a2.602 2.602 0 0 0-3.502-1.228c-5.705 2.819-10.441 5.512-14.077 8.005-4.431 3.038-10.158 7.635-8.73 12.448.5 1.683 1.77 2.991 3.779 3.887.343.153.7.225 1.052.225a2.619 2.619 0 0 0 2.4-1.59c.58-1.345-.021-2.914-1.346-3.505zm24.855-17.62c.356 0 .718-.075 1.064-.231a260.707 260.707 0 0 1 4.014-1.773c1.33-.576 1.95-2.138 1.384-3.489-.566-1.351-2.104-1.981-3.435-1.405-1.393.601-2.77 1.21-4.093 1.807-1.321.598-1.916 2.17-1.328 3.511a2.618 2.618 0 0 0 2.394 1.58zm91.56-28.071c.145 0 .29-.012.438-.037 5.145-.878 9.874-1.515 14.053-1.894 1.441-.131 2.504-1.423 2.376-2.886-.13-1.463-1.404-2.545-2.842-2.411-4.313.39-9.177 1.045-14.455 1.946-1.427.243-2.389 1.614-2.149 3.063a2.631 2.631 0 0 0 2.58 2.219zm20.902 7.671a9.272 9.272 0 0 0-6.91-2.11c-5.173.53-8.957 5.234-8.435 10.486.02.2.048.396.079.59-12.63 5.719-28.466 11.578-44.91 16.605-27.445 8.393-53.635 13.6-68.389 13.6h-.083a52.405 52.405 0 0 1-2.49-.061c-1.448-.066-2.674 1.058-2.745 2.526-.071 1.466 1.042 2.714 2.487 2.786.862.043 1.784.066 2.742.067h.086c8.345 0 20.157-1.592 33.717-4.432l1.717 4.784c3.717 10.217 11.258 11.7 15.406 11.7 6.518 0 11.635-3.283 14.274-9.106 2.64 5.876 7.757 9.158 14.275 9.158 4.147 0 11.689-1.535 15.405-11.752l9.484-26.247a294.118 294.118 0 0 0 11.28-4.826c1.744 1.99 4.279 3.221 7.039 3.221a9.327 9.327 0 0 0 7.31-3.518 9.61 9.61 0 0 0 2.078-7.017 9.553 9.553 0 0 0-3.417-6.454zm-2.718 10.107a4.143 4.143 0 0 1-2.825 1.541c-1.646.17-3.164-.66-3.982-2a2.627 2.627 0 0 0-.128-.353 2.683 2.683 0 0 0-.247-.433 4.282 4.282 0 0 1-.233-1.02c-.232-2.334 1.45-4.425 3.748-4.66a4.123 4.123 0 0 1 3.072.938 4.248 4.248 0 0 1 1.518 2.868 4.27 4.27 0 0 1-.923 3.119zM66.055 63.062c-4.156 0-6.367-2.655-7.682-6.28l-1.228-3.363a426.042 426.042 0 0 0 19.18-4.997l-2.956 8.973c-1.157 3.625-3.473 5.667-7.314 5.667zm28.667-20.296c4.726-1.56 9.319-3.164 13.755-4.797l-6.904 18.865c-1.316 3.624-3.525 6.278-7.682 6.278-3.895 0-6.21-2.092-7.314-5.717l-3.6-10.924c.595-.178 1.188-.357 1.784-.539a475.725 475.725 0 0 0 8.576-2.714l1.385-.452z" fill-opacity=".6"/><path d="M57.171 53.495l1.229 3.348c.115.319.241.627.372.929 3.645-.934 10.23-2.667 15.91-4.17l1.682-5.082a428.137 428.137 0 0 1-19.193 4.975zm37.236 9.632c3.858-.193 5.957-2.763 7.223-6.233l6.909-18.78a432.194 432.194 0 0 1-13.764 4.777l-1.386.45a479.8 479.8 0 0 1-8.583 2.701c-.596.181-1.19.359-1.784.536l1.465 4.425.671-.178s16.083-2.803 9.249 12.302zm47.308-40.656a4.222 4.222 0 0 0-1.52-2.855 4.14 4.14 0 0 0-3.073-.934 4.142 4.142 0 0 0-2.143.87c1.684.573 5.06 2.35 4.208 7.243a4.176 4.176 0 0 0 1.604-1.219 4.235 4.235 0 0 0 .924-3.105z" opacity=".2"/></g></svg>