<svg xmlns="http://www.w3.org/2000/svg" width="174" height="88" fill="none">
	<path fill="#fff" stroke="#ADB1B5" stroke-width="2" d="M155.57 21.4h.02l14.36 7.97a2.98 2.98 0 0 1 1.13 4.11l-8.98 15.34-20.26 34.84a3.02 3.02 0 0 1-4.12 1.1l-36.85-21.12a2.98 2.98 0 0 1-1.1-4.08l29.1-50.01a3.02 3.02 0 0 1 4.1-1.1l22.6 12.95z"/>
	<path fill="#24B324" fill-rule="evenodd" d="M141.54 64.64l-.45-16.48a2 2 0 0 0-2.92-1.71l-9.44 4.8-.17-3.28a2 2 0 0 0-2.99-1.63l-8.01 4.56 23.98 13.74zM132.68 41.63a3.57 3.57 0 0 1-1.32-4.9c1-1.72 3.2-2.3 4.94-1.31a3.57 3.57 0 0 1 1.32 4.9c-1 1.7-3.2 2.3-4.94 1.3z" clip-rule="evenodd" opacity=".5"/>
	<path fill="#fff" stroke="#ADB1B5" stroke-width="2" d="M2.88 34.03a2.98 2.98 0 0 1 1.1-4.08l22.58-12.96L40.5 9.3a3.02 3.02 0 0 1 4.02 1.03l9.25 14.79 20.25 34.82a2.98 2.98 0 0 1-1.1 4.09L36.07 85.15a3.02 3.02 0 0 1-4.11-1.1L2.88 34.02z"/>
	<path fill="#FC3" fill-rule="evenodd" d="M57.3 50.68l-14.61-7.85a2 2 0 0 0-2.96 1.65L39.2 55l-2.95-1.5a2 2 0 0 0-2.91 1.76l-.03 9.16 23.98-13.74zM32.78 46.79c-1.73.99-3.94.4-4.93-1.32-1-1.71-.41-3.9 1.32-4.9a3.63 3.63 0 0 1 4.93 1.32c1 1.71.4 3.9-1.32 4.9z" clip-rule="evenodd" opacity=".5"/>
	<path fill="#fff" stroke="#ADB1B5" stroke-width="2" d="M63.62 4a3 3 0 0 1 3-3h42.57a3 3 0 0 1 3 3V61.73a3 3 0 0 1-3 3H66.62a3 3 0 0 1-3-3V4z"/>
	<path fill="#3374FF" fill-rule="evenodd" d="M102.35 45.41l-8.7-14.05a2 2 0 0 0-3.37-.04l-5.77 8.85-1.8-2.76a2 2 0 0 0-3.4.07l-4.65 7.93h27.7zM83.09 29.88c-2 0-3.62-1.6-3.62-3.59a3.6 3.6 0 0 1 3.62-3.58c2 0 3.6 1.6 3.6 3.58a3.6 3.6 0 0 1-3.6 3.59z" clip-rule="evenodd" opacity=".5"/>
</svg>
