<svg width="34" height="20" viewBox="0 0 34 20" fill="none" xmlns="http://www.w3.org/2000/svg">
<path d="M11.8306 11.8129L8.9537 3.36257L6.01806 11.8129H11.8306ZM19.0523 18.3626V19.5614H11.0674V18.3626L13.9443 18.0117L12.3003 13.1871H5.54836L3.9044 17.9825L6.75197 18.3626V19.5614H0V18.3626L2.4953 17.9825L8.77757 0H10.539L16.8506 18.0994L19.0523 18.3626Z" fill="#151C1F"/>
<path d="M28.7158 11.9883C28.207 12.1248 27.7079 12.271 27.2187 12.4269C26.749 12.5828 26.3575 12.7193 26.0444 12.8363C25.3986 13.0897 24.8799 13.3528 24.4885 13.6257C24.1167 13.8791 23.8329 14.1326 23.6372 14.386C23.4415 14.6394 23.3143 14.8928 23.2556 15.1462C23.1968 15.3996 23.1675 15.6335 23.1675 15.848C23.1675 16.2378 23.2164 16.5497 23.3143 16.7836C23.4317 17.0175 23.5687 17.2222 23.7253 17.3977C24.1754 17.846 24.7723 18.0702 25.516 18.0702C25.7508 18.0702 25.9759 18.0507 26.1912 18.0117C26.4065 17.9532 26.6315 17.8655 26.8664 17.7485C27.1012 17.6121 27.3654 17.4464 27.659 17.2515C27.9526 17.037 28.3049 16.7836 28.7158 16.4912V11.9883ZM34 18.3041C33.6673 18.9279 33.3052 19.347 32.9138 19.5614C32.5224 19.7563 32.0918 19.8538 31.6221 19.8538C30.8002 19.8538 30.1543 19.6589 29.6846 19.269C29.2149 18.8596 28.9116 18.3236 28.7746 17.6608C28.3831 18.0507 28.0211 18.3918 27.6884 18.6842C27.3557 18.9766 27.023 19.2203 26.6903 19.4152C26.3575 19.6101 26.0151 19.7563 25.6628 19.8538C25.3105 19.9513 24.9191 20 24.4885 20C23.9601 20 23.4513 19.922 22.962 19.7661C22.4923 19.6101 22.0715 19.3762 21.6997 19.0643C21.3474 18.7524 21.0636 18.3723 20.8483 17.924C20.6526 17.4561 20.5548 16.9201 20.5548 16.3158C20.5548 15.9064 20.6233 15.5068 20.7603 15.117C20.8973 14.7271 21.1419 14.3567 21.4942 14.0058C21.8464 13.6355 22.3357 13.2749 22.962 12.924C23.6078 12.5536 24.4298 12.193 25.4279 11.8421C25.8781 11.6862 26.3869 11.5302 26.9545 11.3743C27.5416 11.1988 28.1287 11.0331 28.7158 10.8772V10.0877C28.7158 9.38596 28.6571 8.81092 28.5397 8.36257C28.4419 7.89474 28.2853 7.53411 28.07 7.2807C27.8547 7.0078 27.5709 6.82261 27.2187 6.72515C26.886 6.60819 26.475 6.54971 25.9857 6.54971C25.7704 6.54971 25.5356 6.55945 25.2811 6.57895C25.0463 6.59844 24.7821 6.63743 24.4885 6.69591L23.9014 8.74269C23.6274 9.67836 23.099 10.1462 22.3161 10.1462C21.9052 10.1462 21.5822 10.039 21.3474 9.82456C21.1125 9.59064 20.9755 9.27875 20.9364 8.88889C21.2104 7.77778 21.8562 6.89084 22.8739 6.22807C23.8916 5.54581 25.1539 5.20468 26.6609 5.20468C28.207 5.20468 29.3519 5.59454 30.0956 6.37427C30.8393 7.154 31.2111 8.47953 31.2111 10.3509V16.6082C31.2111 17.7583 31.5341 18.3333 32.1799 18.3333C32.4148 18.3333 32.6202 18.2846 32.7964 18.1871C32.9725 18.0702 33.1291 17.9532 33.2661 17.8363L33.4129 17.6608L34 18.3041Z" fill="#151C1F"/>
</svg>
