<svg width="34" height="21" viewBox="0 0 34 21" fill="none" xmlns="http://www.w3.org/2000/svg">
<path d="M17.2573 18.2193C17.7384 19.4165 18.4298 20.0345 19.3318 20.0731V20.6524C18.5301 20.5945 17.4577 20.5655 16.1148 20.5655C14.3911 20.5655 13.1083 20.5945 12.2665 20.6524V20.0731C13.0282 20.0345 13.5693 19.9476 13.89 19.8124C14.2308 19.6579 14.4011 19.3876 14.4011 19.0014C14.4011 18.6731 14.2809 18.2193 14.0404 17.64L12.2064 12.8897H4.93066L3.698 15.96C3.29713 17.0028 3.0967 17.7945 3.0967 18.3352C3.0967 18.9338 3.30715 19.3683 3.72806 19.6386C4.16901 19.909 4.83045 20.0538 5.71235 20.0731V20.6524C4.56988 20.5945 3.41739 20.5655 2.25487 20.5655C1.35292 20.5655 0.6013 20.5945 0 20.6524V20.0731C1.00217 19.8414 1.79388 19.0014 2.37514 17.5531L9.44041 0H9.92145L17.2573 18.2193ZM11.9659 12.3103L8.59859 3.64966L5.17118 12.3103H11.9659Z" fill="#151C1F"/>
<path d="M32.6771 17.0897C32.6771 17.7076 32.7874 18.171 33.0079 18.48C33.2283 18.7697 33.559 18.9917 34 19.1462L33.3686 21C32.5469 20.9034 31.8854 20.6814 31.3843 20.3338C30.8833 19.9862 30.5125 19.4455 30.2719 18.7117C29.2096 20.2372 27.6362 21 25.5517 21C23.9884 21 22.7557 20.5752 21.8537 19.7255C20.9518 18.8759 20.5008 17.7655 20.5008 16.3945C20.5008 14.7724 21.1021 13.5269 22.3047 12.6579C23.5274 11.789 25.2511 11.3545 27.4759 11.3545H29.9112V10.2248C29.9112 9.14345 29.6406 8.37104 29.0994 7.90759C28.5582 7.44414 27.7264 7.21241 26.604 7.21241C25.4415 7.21241 24.0184 7.48276 22.3348 8.02345L21.6433 6.08276C23.6075 5.38759 25.4315 5.04 27.1151 5.04C28.9791 5.04 30.3722 5.48414 31.2941 6.37241C32.2161 7.24138 32.6771 8.4869 32.6771 10.109V17.0897ZM26.1831 19.0014C27.7665 19.0014 29.0092 18.2097 29.9112 16.6262V13.1214H27.8367C24.9103 13.1214 23.4472 14.1641 23.4472 16.2497C23.4472 17.1572 23.6777 17.8428 24.1387 18.3062C24.5997 18.7697 25.2811 19.0014 26.1831 19.0014Z" fill="#151C1F"/>
</svg>
