<svg width="34" height="22" viewBox="0 0 34 22" fill="none" xmlns="http://www.w3.org/2000/svg">
<path d="M20.2056 21.6466L12.4297 0.616333H7.80536L0 21.6466H4.2414L6.00865 16.4332H14.0496L15.8169 21.6466H20.2056ZM13.0482 13.1638H6.98064L10.0733 4.03302L13.0482 13.1638Z" fill="#151C1F"/>
<path d="M34 21.6466V10.6602C34 7.50861 31.7026 6.00645 28.3743 6.00645C26.0474 6.00645 23.8383 6.77226 22.2772 7.92097L23.3965 9.80603C24.7514 8.71623 26.6954 8.21551 28.227 8.21551C29.7881 8.21551 31.5258 8.71623 31.5258 10.3068C31.5258 12.2213 28.9928 12.398 26.6954 12.7514C24.7219 13.0754 21.5703 13.7234 21.5703 17.3463C21.5703 20.2623 23.6616 22.0001 26.8721 22.0001C28.9044 22.0001 30.495 21.2932 31.5848 19.7615C31.5848 20.2917 31.5848 21.6466 31.5848 21.6466H34ZM31.5258 15.638C31.5258 18.6128 29.4346 19.8204 27.255 19.8204C25.5467 19.8204 24.1034 19.0841 24.1034 17.199C24.1034 15.4023 25.4288 14.9605 27.1961 14.6365C28.7277 14.3714 30.4655 14.1358 31.5258 13.37V15.638Z" fill="#151C1F"/>
</svg>
