<svg width="34" height="20" viewBox="0 0 34 20" fill="none" xmlns="http://www.w3.org/2000/svg">
<path d="M0.600595 19.7183C0.448063 19.7183 0.305066 19.662 0.1716 19.5493C0.0572008 19.4178 0 19.277 0 19.1268C0 19.0141 0.00953346 18.9296 0.0286 18.8732L6.74955 0.788732C6.80675 0.563381 6.93068 0.375588 7.12135 0.225353C7.31201 0.0751175 7.55988 0 7.86494 0H12.0977C12.4028 0 12.6506 0.0751175 12.8413 0.225353C13.032 0.375588 13.1559 0.563381 13.2131 0.788732L19.9054 18.8732L19.9626 19.1268C19.9626 19.277 19.8959 19.4178 19.7625 19.5493C19.6481 19.662 19.5051 19.7183 19.3335 19.7183H15.8157C15.3581 19.7183 15.053 19.5211 14.9005 19.1268L13.7851 16.2535H6.14895L5.06216 19.1268C4.90963 19.5211 4.59503 19.7183 4.11837 19.7183H0.600595ZM12.6411 12.1972L9.98132 4.76056L7.32154 12.1972H12.6411Z" fill="#151C1F"/>
<path d="M26.4783 20C25.544 20 24.6765 19.8122 23.8757 19.4366C23.0749 19.061 22.4362 18.554 21.9595 17.9155C21.5019 17.2582 21.2731 16.5352 21.2731 15.7465C21.2731 14.507 21.7879 13.493 22.8175 12.7042C23.8661 11.8967 25.2771 11.3709 27.0503 11.1268L31.3116 10.5352V9.71831C31.3116 7.80282 30.1962 6.84507 27.9654 6.84507C27.1265 6.84507 26.4401 7.02347 25.9063 7.38028C25.3724 7.71831 24.972 8.12207 24.7051 8.59155C24.6479 8.76056 24.5716 8.88263 24.4763 8.95775C24.4 9.03286 24.2856 9.07042 24.1331 9.07042H22.9033C22.7317 9.07042 22.5792 9.01409 22.4457 8.90141C22.3313 8.76995 22.2741 8.61972 22.2741 8.45071C22.2932 8 22.5029 7.49296 22.9033 6.92958C23.3227 6.34742 23.9615 5.84977 24.8195 5.43662C25.6775 5.00469 26.7357 4.78873 27.994 4.78873C30.1295 4.78873 31.6644 5.28639 32.5986 6.28169C33.5329 7.25822 34 8.47887 34 9.94366V19.0704C34 19.2582 33.9333 19.4178 33.7998 19.5493C33.6854 19.662 33.5329 19.7183 33.3422 19.7183H32.0266C31.8359 19.7183 31.6739 19.662 31.5404 19.5493C31.426 19.4178 31.3688 19.2582 31.3688 19.0704V17.8592C30.9494 18.4601 30.3392 18.9671 29.5384 19.3803C28.7376 19.7934 27.7176 20 26.4783 20ZM27.0789 17.8873C28.3182 17.8873 29.3287 17.493 30.1104 16.7042C30.9112 15.8967 31.3116 14.7418 31.3116 13.2394V12.4507L27.994 12.9296C26.6403 13.1174 25.6203 13.4366 24.9339 13.8873C24.2475 14.3193 23.9043 14.8732 23.9043 15.5493C23.9043 16.3005 24.2189 16.8826 24.8481 17.2958C25.4773 17.6901 26.2209 17.8873 27.0789 17.8873Z" fill="#151C1F"/>
</svg>
