<svg width="34" height="20" viewBox="0 0 34 20" fill="none" xmlns="http://www.w3.org/2000/svg">
<path d="M0 18.0095L1.46998 17.8064L8.39792 0H10.6982L17.5036 17.8064L18.96 18.0095V19.7156H13.2706V18.0095L14.7678 17.7522L13.4612 14.1232H5.52602L4.17854 17.7522L5.67574 18.0095V19.7156H0V18.0095ZM6.35629 11.889H12.6445L9.56845 3.42586H9.48679L6.35629 11.889Z" fill="#151C1F"/>
<path d="M30.4884 19.7156C30.4067 19.3184 30.3432 18.9619 30.2978 18.6459C30.2525 18.3299 30.2207 18.014 30.2026 17.698C29.6853 18.357 29.0366 18.9077 28.2562 19.35C27.4849 19.7833 26.6592 20 25.779 20C24.2455 20 23.0795 19.6299 22.281 18.8896C21.4825 18.1404 21.0833 17.0887 21.0833 15.7346C21.0833 14.3444 21.6459 13.2747 22.771 12.5254C23.9053 11.7671 25.4569 11.3879 27.4259 11.3879H30.189V9.68179C30.189 8.82419 29.9167 8.14715 29.3723 7.65064C28.8279 7.14511 28.0702 6.89235 27.0993 6.89235C26.4278 6.89235 25.8335 6.97811 25.3163 7.14963C24.8081 7.32115 24.3953 7.55586 24.0777 7.85376L23.7918 9.39743H21.723V6.55383C22.3944 6.02121 23.2066 5.59693 24.1593 5.28097C25.1121 4.95599 26.1465 4.7935 27.2626 4.7935C28.9322 4.7935 30.2842 5.21778 31.3187 6.06635C32.3531 6.91492 32.8703 8.12909 32.8703 9.70887V16.7637C32.8703 16.9533 32.8703 17.1383 32.8703 17.3189C32.8794 17.4994 32.893 17.68 32.9111 17.8605L34 18.0095V19.7156H30.4884ZM26.1737 17.7657C27.063 17.7657 27.8751 17.5536 28.6101 17.1293C29.3451 16.705 29.8714 16.195 30.189 15.5992V13.1889H27.3307C26.2327 13.1889 25.3616 13.4417 24.7174 13.9472C24.0822 14.4527 23.7646 15.0666 23.7646 15.7888C23.7646 16.4297 23.9642 16.9217 24.3635 17.2647C24.7627 17.5987 25.3662 17.7657 26.1737 17.7657Z" fill="#151C1F"/>
</svg>
