<?xml version="1.0" encoding="UTF-8"?>
<svg width="48px" height="31px" viewBox="0 0 48 31" version="1.1" xmlns="http://www.w3.org/2000/svg" xmlns:xlink="http://www.w3.org/1999/xlink">
    <!-- Generator: Sketch 51.3 (57544) - http://www.bohemiancoding.com/sketch -->
    <title>envelope</title>
    <desc>Created with Sketch.</desc>
    <defs></defs>
    <g id="Popups" stroke="none" stroke-width="1" fill="none" fill-rule="evenodd">
        <g id="0.-Website-Home-Popups" transform="translate(-275.000000, -184.000000)" fill="#0073FF">
            <path d="M277.227736,185.204549 C277.283984,185.196441 277.341408,185.192308 277.4,185.192308 L320.6,185.192308 C320.65856,185.192308 320.716,185.196441 320.77224,185.204549 L299,201.144113 L277.227736,185.204549 Z M276.270896,185.984477 C276.225192,186.110703 276.2,186.245672 276.2,186.384615 L276.2,212.615385 C276.2,212.752738 276.224024,212.886197 276.269144,213.011072 L294.56448,199.37759 L276.270896,185.984477 Z M277.307424,213.804195 C277.277536,213.80189 277.247656,213.798472 277.21836,213.794021 L295.57288,200.116026 L298.64432,202.364559 C298.85584,202.519479 299.14416,202.519479 299.35568,202.364559 L302.42712,200.116026 L320.78168,213.794021 C320.72248,213.803003 320.66208,213.807692 320.6,213.807692 L277.4,213.807692 C277.368944,213.807692 277.337888,213.8065 277.307424,213.804195 Z M321.73088,213.011072 C321.776,212.886197 321.8,212.752738 321.8,212.615385 L321.8,186.384615 C321.8,186.245672 321.7748,186.110703 321.72912,185.984477 L303.43552,199.37759 L321.73088,213.011072 Z M277.4,184 C276.035936,184 275,185.11449 275,186.384615 L275,212.615385 C275,213.88551 276.035936,215 277.4,215 L320.6,215 C321.96408,215 323,213.88551 323,212.615385 L323,186.384615 C323,185.11449 321.96408,184 320.6,184 L277.4,184 Z" id="envelope"></path>
        </g>
    </g>
</svg>
