<?xml version="1.0" encoding="UTF-8"?>
<svg width="47px" height="34px" viewBox="0 0 47 34" version="1.1" xmlns="http://www.w3.org/2000/svg" xmlns:xlink="http://www.w3.org/1999/xlink">
    <!-- Generator: Sketch 51.3 (57544) - http://www.bohemiancoding.com/sketch -->
    <title>Shape</title>
    <desc>Created with Sketch.</desc>
    <defs></defs>
    <g id="Popups" stroke="none" stroke-width="1" fill="none" fill-rule="evenodd">
        <g id="0.-Website-Home-Popups" transform="translate(-740.000000, -183.000000)" fill="#0073FF">
            <path d="M772.478125,183 C772.330456,183 772.18793,183.055052 772.07754,183.154688 C765.627051,188.980331 757.155723,192.172662 747.833333,192.172662 L747.230769,192.172662 C743.499901,192.172662 740,195.345832 740,199.205036 C740,202.855592 743.131686,205.892273 746.628205,206.210014 L746.628205,206.848921 C746.628205,206.872158 746.629531,206.895314 746.632029,206.918388 L747.355227,213.339252 C747.357428,213.358902 747.360521,213.37847 747.364643,213.397957 C747.565875,214.350854 748.002212,215.2267 748.563159,215.87482 C749.11334,216.510465 749.852003,217 750.665385,217 C751.291489,217 752.153397,216.902403 752.831402,216.162964 C753.490446,215.444072 753.858974,214.244206 753.858974,212.352518 L753.858974,206.729146 C760.941432,207.934556 766.916779,211.30977 772.060026,216.33965 C772.087262,216.36623 772.116827,216.390038 772.148161,216.41083 C772.198615,216.444504 772.254132,216.470269 772.312621,216.487309 L772.734415,216.60953 C772.765749,216.618662 772.797805,216.625185 772.830183,216.629017 C772.853402,216.631707 772.876701,216.633094 772.90008,216.633094 C773.656821,216.633094 774.328961,216.441405 774.825554,216.042374 C775.335805,215.632499 775.611619,215.040964 775.611619,214.370504 L775.611619,185.751799 L775.611458,185.737285 L775.610735,185.721305 C775.535856,184.201252 774.393234,183 772.90008,183 L772.478125,183 Z M746.628205,193.428624 C743.732483,193.744897 741.205128,196.293511 741.205128,199.205036 C741.205128,202.116561 743.732483,204.665175 746.628205,204.981448 L746.628205,193.428624 Z M752.653846,206.546508 C751.118915,206.342101 749.533046,206.23741 747.89367,206.23741 L747.833333,206.23741 L747.833333,206.814106 L748.549019,213.169823 C748.712032,213.917823 749.055494,214.590484 749.468612,215.067626 C749.897557,215.563276 750.333894,215.776978 750.665385,215.776978 C751.184232,215.776978 751.617918,215.691122 751.949007,215.329842 C752.299137,214.948014 752.653846,214.129894 752.653846,212.352518 L752.653846,206.546508 Z M747.833333,193.395683 C756.16567,193.395683 763.867805,190.916537 770.128205,186.312513 L770.128205,212.975118 C763.957627,207.917189 756.659532,205.014388 747.89367,205.014388 L747.833333,205.014388 L747.833333,193.395683 Z M771.333333,213.820144 L771.333333,185.385544 C771.799959,185.010403 772.257747,184.622868 772.706296,184.223022 L772.90008,184.223022 C773.692412,184.223022 774.35467,184.849861 774.406491,185.768106 L774.406491,214.370504 C774.406491,214.67846 774.290557,214.912465 774.077491,215.083525 C773.862014,215.256624 773.505296,215.396048 772.980985,215.409094 L772.787682,215.352998 C772.30306,214.882297 771.811126,214.425703 771.311561,213.98354 C771.325701,213.93152 771.333333,213.876729 771.333333,213.820144 Z M778.564103,199.510791 C778.564103,199.173074 778.833891,198.899281 779.166667,198.899281 L786.397436,198.899281 C786.730212,198.899281 787,199.173074 787,199.510791 C787,199.848508 786.730212,200.122302 786.397436,200.122302 L779.166667,200.122302 C778.833891,200.122302 778.564103,199.848508 778.564103,199.510791 Z M778.627653,205.84164 C778.776526,205.539554 779.138386,205.417089 779.436133,205.568173 L785.7028,208.748029 C786.000547,208.899031 786.12114,209.266345 785.972267,209.568432 C785.823393,209.870518 785.461533,209.992983 785.163947,209.841899 L778.8972,206.662043 C778.599533,206.511041 778.47894,206.143727 778.627653,205.84164 Z M785.7028,190.151252 C786.000547,190.000249 786.12114,189.632935 785.972267,189.330849 C785.823393,189.028763 785.461533,188.906297 785.163947,189.057381 L778.8972,192.237237 C778.599533,192.38824 778.47894,192.755554 778.627653,193.05764 C778.776526,193.359727 779.138386,193.482192 779.436133,193.331108 L785.7028,190.151252 Z" id="Shape"></path>
        </g>
    </g>
</svg>
