<?xml version="1.0" encoding="UTF-8"?>
<svg width="47px" height="47px" viewBox="0 0 47 47" version="1.1" xmlns="http://www.w3.org/2000/svg" xmlns:xlink="http://www.w3.org/1999/xlink">
    <!-- Generator: Sketch 51.3 (57544) - http://www.bohemiancoding.com/sketch -->
    <title>Group 10</title>
    <desc>Created with Sketch.</desc>
    <defs></defs>
    <g id="Popups" stroke="none" stroke-width="1" fill="none" fill-rule="evenodd">
        <g id="0.-Website-Home-Popups" transform="translate(-508.000000, -176.000000)" fill="#0073FF">
            <g id="Group-10" transform="translate(508.000000, 176.000000)">
                <path d="M21,14.5789474 C21,14.259214 20.7764,14 20.5,14 C20.3212667,14 20.1650667,14.1080702 20.0771333,14.2706386 C20.0283333,14.3599509 20,14.4656281 20,14.5789474 L20,35.4210526 C20,35.740786 20.2236667,36 20.5,36 C20.7764,36 21,35.740786 21,35.4210526 L21,14.5789474 Z" id="Shape" fill-rule="nonzero"></path>
                <path d="M11,25.5 C11,23.5669889 12.5666,22 14.5,22 C16.4334,22 18,23.5669889 18,25.5 C18,27.4330111 16.4334,29 14.5,29 C12.5666,29 11,27.4330111 11,25.5 Z M14.5,23.1666667 C13.2114556,23.1666667 12.1666667,24.2113778 12.1666667,25.5 C12.1666667,26.7887 13.2114556,27.8333333 14.5,27.8333333 C15.7885444,27.8333333 16.8333333,26.7887 16.8333333,25.5 C16.8333333,24.2113778 15.7885444,23.1666667 14.5,23.1666667 Z" id="Shape"></path>
                <path d="M24,25.5 C24,23.5669889 25.5666,22 27.5,22 C29.4334,22 31,23.5669889 31,25.5 C31,27.4330111 29.4334,29 27.5,29 C25.5666,29 24,27.4330111 24,25.5 Z M27.5,23.1666667 C26.2114556,23.1666667 25.1666667,24.2113778 25.1666667,25.5 C25.1666667,26.7887 26.2114556,27.8333333 27.5,27.8333333 C28.7885444,27.8333333 29.8333333,26.7887 29.8333333,25.5 C29.8333333,24.2113778 28.7885444,23.1666667 27.5,23.1666667 Z" id="Shape"></path>
                <path d="M39.5,5 C38.1194167,5 37,6.11929167 37,7.5 C37,8.88075 38.1194167,10 39.5,10 C40.8805833,10 42,8.88075 42,7.5 C42,6.11929167 40.8805833,5 39.5,5 Z M38.25,7.5 C38.25,6.80963333 38.8090833,6.25 39.5,6.25 C40.1909167,6.25 40.75,6.80963333 40.75,7.5 C40.75,8.19036667 40.1909167,8.75 39.5,8.75 C38.8090833,8.75 38.25,8.19036667 38.25,7.5 Z" id="Shape"></path>
                <path d="M24.7116688,0.663872917 C25.6625807,0.261758824 26.6974658,0 27.5944342,0 L43.4717153,0 C45.4426151,0 47,1.556987 47,3.528307 L47,19.4056885 C47,20.32838 46.739299,21.3769144 46.3442095,22.3286165 C45.9502177,23.279848 45.3978451,24.1908569 44.7695752,24.8199148 L23.5998671,45.9897568 C22.2468875,47.3424313 20.0003894,47.327534 18.6037376,46.0003418 L18.5980139,45.9954805 L18.5933879,45.9904625 L1.01056535,28.4665377 C-0.342405599,27.113236 -0.327474682,24.8668805 0.999078819,23.4698277 L1.00481816,23.4644177 L1.01056535,23.459086 L22.1802421,2.28921263 C22.8361111,1.63323763 23.7595024,1.06652096 24.7116688,0.663872917 Z M25.1698754,1.74713922 C24.3131294,2.1089475 23.5309479,2.60072293 23.0118196,3.12084243 L1.84784298,24.2851019 C0.945096063,25.2404106 0.961177201,26.7536623 1.8420958,27.6342493 L19.4180657,45.1522152 C20.3736036,46.0549129 21.8873945,46.0386043 22.7682896,45.1581741 L43.9379977,23.9883321 C44.4261555,23.5000928 44.9027876,22.7351558 45.2576546,21.8781693 C45.6136977,21.0215747 45.8239051,20.1294619 45.8239051,19.4056885 L45.8239051,3.528307 C45.8239051,2.20654047 44.7925483,1.17610233 43.4717153,1.17610233 L27.5944342,1.17610233 C26.9018711,1.17610233 26.0266997,1.38477425 25.1698754,1.74713922 Z" id="Shape"></path>
            </g>
        </g>
    </g>
</svg>
