<svg width="42" height="40" viewBox="0 0 42 40" fill="none" xmlns="http://www.w3.org/2000/svg">
<g clip-path="url(#clip0)">
<path fill-rule="evenodd" clip-rule="evenodd" d="M15.7069 5.10701C16.3271 4.4867 17.5945 3.69735 19.0926 3.05703C20.5865 2.41855 22.1431 2 23.2997 2H33.9997C36.1874 2 37.9997 3.69142 37.9997 5.9V16.6C37.9997 17.7451 37.5632 19.2696 36.8993 20.7543C36.2382 22.2329 35.4178 23.5253 34.7702 24.2161C34.0336 25.0018 30.8991 28.1613 27.9286 31.1444C26.4478 32.6315 25.0138 34.0686 23.9499 35.134C23.418 35.6667 22.9786 36.1065 22.6723 36.413L22.3175 36.7679L22.2245 36.8611L22.2006 36.8849L22.1946 36.8909L22.1931 36.8924L22.1927 36.8928C22.1927 36.8928 22.1926 36.8929 22.8997 37.6L22.1926 36.8929C20.684 38.4015 18.219 38.4024 16.7093 36.8954L16.7068 36.8929L16.7033 36.8892L16.6764 36.862L16.5716 36.7555L16.1728 36.3506C15.8288 36.0013 15.336 35.5012 14.7413 34.8979C13.5519 33.6915 11.9546 32.0724 10.3228 30.4219C7.07767 27.1397 3.64777 23.6839 3.07292 23.1605C2.96952 23.0664 2.78331 22.8011 2.60802 22.323C2.44153 21.8689 2.31623 21.3073 2.27262 20.7142C2.18234 19.4865 2.45152 18.3624 3.10683 17.7071L2.7737 17.374C3.10684 17.7071 3.10688 17.7071 3.10695 17.707L3.10733 17.7066L3.10884 17.7051L3.11487 17.6991L3.13871 17.6752L3.23185 17.5821L3.58672 17.2272L4.86469 15.9493L8.84447 11.9696C11.807 9.00715 14.9571 5.85708 15.7069 5.10701ZM23.6068 38.3071L22.8997 37.6C23.6068 38.3071 23.6069 38.3071 23.607 38.307L23.6073 38.3066L23.6089 38.3051L23.6149 38.299L23.6388 38.2752L23.732 38.1819L24.0869 37.8268C24.3935 37.5201 24.833 37.0801 25.3652 36.5472C26.4294 35.4814 27.8641 34.0435 29.3458 32.5556C32.3003 29.5887 35.4659 26.3982 36.2293 25.5839C37.0817 24.6747 38.0113 23.1671 38.7251 21.5707C39.4362 19.9804 39.9997 18.1549 39.9997 16.6V5.9C39.9997 2.50858 37.212 0 33.9997 0H23.2997C21.7564 0 19.9128 0.53145 18.3066 1.21797C16.7046 1.90265 15.172 2.8133 14.2925 3.69299C13.5428 4.44292 10.3929 7.59285 7.43027 10.5554L3.4505 14.5351L2.17253 15.813L1.81766 16.1679L1.72452 16.261L1.70068 16.2848L1.69465 16.2909L1.69314 16.2924L1.69276 16.2928C1.69267 16.2928 1.69263 16.2929 2.39973 17L1.69263 16.2929L1.69262 16.2929C0.447932 17.5376 0.167897 19.3635 0.278005 20.8608C0.334585 21.6302 0.496882 22.3749 0.730247 23.0114C0.954811 23.6239 1.28071 24.2336 1.72653 24.6395C2.25012 25.1161 5.62022 28.5103 8.90053 31.8281C10.5314 33.4776 12.1281 35.096 13.3171 36.3021C13.9115 36.9051 14.4041 37.405 14.748 37.7541L15.1465 38.1588L15.2512 38.2651L15.278 38.2923L15.2848 38.2992L15.2865 38.3009L15.2869 38.3014C15.287 38.3015 15.2871 38.3015 15.9462 37.6527L15.2871 38.3015L15.2926 38.3071C17.5831 40.5976 21.3163 40.5976 23.6068 38.3071ZM21 10C21 9.44771 20.5523 9 20 9C19.4477 9 19 9.44771 19 10V30C19 30.5523 19.4477 31 20 31C20.5523 31 21 30.5523 21 30V10ZM11 20C11 18.8954 11.8955 18 13 18C14.1046 18 15 18.8954 15 20C15 21.1046 14.1046 22 13 22C11.8955 22 11 21.1046 11 20ZM13 16C10.7909 16 9.00003 17.7909 9.00003 20C9.00003 22.2091 10.7909 24 13 24C15.2092 24 17 22.2091 17 20C17 17.7909 15.2092 16 13 16ZM25 20C25 18.8954 25.8955 18 27 18C28.1046 18 29 18.8954 29 20C29 21.1046 28.1046 22 27 22C25.8955 22 25 21.1046 25 20ZM27 16C24.7909 16 23 17.7909 23 20C23 22.2091 24.7909 24 27 24C29.2092 24 31 22.2091 31 20C31 17.7909 29.2092 16 27 16ZM35 7C35 8.10457 34.1046 9 33 9C31.8955 9 31 8.10457 31 7C31 5.89543 31.8955 5 33 5C34.1046 5 35 5.89543 35 7Z" fill="#D5D9DC"/>
</g>
<defs>
<clipPath id="clip0">
<rect width="41.2556" height="40" fill="white"/>
</clipPath>
</defs>
</svg>