<svg width="118px" height="124px" viewBox="0 0 118 124" version="1.1" xmlns="http://www.w3.org/2000/svg" xmlns:xlink="http://www.w3.org/1999/xlink">
	<!-- Generator: Sketch 49.1 (51147) - http://www.bohemiancoding.com/sketch -->
	<desc>Created with Sketch.</desc>
	<defs></defs>
	<g id="Page-1" stroke="none" stroke-width="1" fill="none" fill-rule="evenodd">
		<g id="Toasts-Copy" transform="translate(-1005.000000, -722.000000)">
			<g id="Advanced" transform="translate(49.000000, 652.000000)">
				<g id="Demo" transform="translate(631.000000, 0.000000)">
					<g id="Default-/-Description-/-Action-Copy" transform="translate(40.000000, 40.000000)">
						<g id="Illustration" transform="translate(284.000000, 30.000000)">
							<g id="woman" transform="translate(89.604396, 67.631868) scale(-1, 1) translate(-89.604396, -67.631868) translate(59.604396, 12.131868)">
								<path d="M4.26769817,84.6213771 C3.83307204,84.426317 3.18113285,84.361297 2.25755232,84.426317 C1.33397179,84.491337 0.199673525,85.2064393 0.658166123,85.5966183 C1.11665872,85.9867974 4.21336991,85.9218363 4.70232431,85.5316573 C5.1912787,85.1414782 4.70232431,84.8164371 4.26769817,84.6213771 Z" id="Path-10" fill="#3C526D" transform="translate(2.729630, 85.130363) rotate(-11.000000) translate(-2.729630, -85.130363) "></path>
								<path d="M40.9364947,107.575553 C40.5045378,107.361856 39.8566024,107.290624 38.9386939,107.361856 C38.4688767,107.398315 37.8930464,107.602706 37.503906,107.850889 C37.1327608,108.087594 37.1124748,110.248856 37.503906,110.248856 C37.872009,110.248856 38.4456987,108.751296 38.9386939,108.792 C40.0288082,108.882004 41.03383,108.867147 41.3684516,108.572804 C41.8544032,108.145346 41.3684516,107.789249 40.9364947,107.575553 Z" id="Path-10" fill="#3C526D" transform="translate(39.394505, 108.792000) rotate(-90.000000) translate(-39.394505, -108.792000) "></path>
								<path d="M25.8080239,65.5585284 C27.2903777,59.9389748 28.0315547,54.8033964 28.0315547,50.1517932 C28.0315547,49.1578366 28.0255169,48.2156003 28.0134414,47.3250843 C27.9838172,45.1404194 27.865516,42.292585 27.6585379,38.7815812 C27.8393283,38.2603171 27.9309442,37.8363637 27.9333856,37.5097212 C27.9370478,37.0197575 27.9642812,36.6034743 28.0441504,35.5996066 C28.0973965,34.9303614 27.9380799,35.2680442 27.5662006,36.6126548 C27.736316,35.2661014 27.7496663,34.555716 27.6062517,34.4814985 C27.5101357,34.4317583 27.364397,35.1043735 27.1690355,36.4993443 C27.2114503,35.1276939 27.1722038,34.4618188 27.0512959,34.5017193 C26.869934,34.5615699 26.7582537,36.5941755 26.7582537,36.5941755 C26.7582537,36.5941755 26.7898092,34.9812229 26.7103122,34.940083 C26.5661382,34.8654725 26.5170052,36.4962906 26.3710431,36.7626872 C26.3471833,36.8062338 26.3679914,35.9083727 26.1235452,35.9890416 C25.8790991,36.0697104 26.0263972,37.6910146 26.1333832,37.9000861 C26.2403693,38.1091576 26.4735726,38.4221287 26.4786105,38.5136695 C26.5609035,40.0089548 25.0224894,50.299224 23.9863465,53.6292617 C23.2955846,55.8492868 21.7493665,59.7745246 19.3476923,65.4049752 L25.8080239,65.5585284 Z" id="Path-5" fill="#94C9FF" transform="translate(23.700923, 50.018729) scale(-1, 1) rotate(-252.000000) translate(-23.700923, -50.018729) "></path>
								<path d="M57.9991049,29.6227425 C59.3182657,25.4185079 59.9778462,21.0828911 59.9778462,16.6158919 C59.9778462,12.1488927 59.5820979,8.07604053 58.7906014,4.39733532 C59.0544336,3.87180601 59.0544336,3.34627669 58.7906014,2.82074738 C58.3948531,2.0324534 56.8118601,-0.140681347 56.8118601,0.455865458 C56.8118601,0.522664375 57.6033566,1.63830642 57.6033566,1.63830642 C57.6033566,1.63830642 55.8017222,-0.373795096 56.0203636,0.0617184709 C56.4161119,0.850012444 57.1916476,1.53581901 57.2076084,1.63830642 C57.2224891,1.73385857 55.6246154,-0.265629599 55.6246154,0.0617184709 C55.6246154,0.38906654 57.1076222,2.06461007 57.037227,2.0324534 C56.968609,2.00110862 55.2288671,0.128517388 55.2288671,0.455865458 C55.2288671,0.783213527 56.0203636,1.63830642 56.8118601,2.42660039 C57.6033566,3.21489436 55.2288671,1.63830642 56.0203636,2.42660039 C56.8118601,3.21489436 56.4161119,2.82074738 56.8118601,3.21489436 C57.2076084,3.60904135 57.9991049,4.00318834 57.9991049,4.79148231 C57.9991049,5.57977628 56.4161119,14.25101 55.2288671,17.4041859 C54.4373706,19.5063031 53.1182098,22.5280967 51.2713846,26.4695666 L57.9991049,29.6227425 Z" id="Path-5" fill="#94C9FF"></path>
								<path d="M57.5593846,44.6769231 C57.5593846,57.6102593 55.9591995,68.3000575 52.7588294,76.7463179 C49.5584592,85.1925782 45.1579503,95.2225124 39.5573025,106.83612 L38.3571637,106.83612 C40.2240463,96.278295 41.4241851,89.4157084 41.9575801,86.2483608 C42.4909751,83.0810131 42.8910214,76.6143451 43.1577189,66.8483565 C38.3571637,70.5435954 33.4232597,73.8429159 28.3560069,76.7463179 C23.2887542,79.6497199 15.4211776,82.4211491 4.75327704,85.0606054 L4.35323077,84.2687685 C14.7544338,78.1980189 21.5552204,73.8429159 24.7555905,71.2034595 C29.5561457,67.244275 36.3569323,60.1177428 37.9571174,55.7626398 C39.0239075,52.8592378 45.5579965,49.1639989 57.5593846,44.6769231 Z" id="Path-4" fill="#BDCBDC"></path>
								<path d="M45.365247,33.2213018 L35.7932308,41.9873424 L35.7932308,49.1595575 L39.7815709,46.7688191 C39.5156815,48.3626447 39.2497922,49.8236515 38.9839028,51.1518395 C38.7180135,52.4800274 38.3191795,54.073853 37.7874008,55.9333162 C43.1051876,56.730229 47.359417,56.3317726 50.5500891,54.737947 C55.3360972,52.3472086 58.5267692,49.1595575 58.5267692,47.9641883 C58.5267692,46.7688191 57.7291012,35.6120401 57.7291012,34.0182146 C57.7291012,32.9556642 57.9949906,31.4946574 58.5267692,29.6351942 C56.9314332,29.103919 55.6019865,28.4398251 54.5384291,27.6429123 C53.4748718,26.8459995 52.5442591,26.0490867 51.7465911,25.2521739 L48.555919,29.2367378 L45.365247,33.2213018 Z" id="Path-3" fill="#DCEEFF"></path>
								<path d="M47.172965,25.3795421 C47.5768836,24.9859685 49.1925581,23.4116744 48.7886395,22.2309539 C48.3847209,21.0502333 47.172965,19.0823657 44.3455347,19.4759392 C41.5181043,19.8695127 35.8632436,24.592395 30.6123016,27.3474097 C25.3613595,30.1024243 12.8398822,30.8895714 20.1104174,34.8253066 C27.3809526,38.7610418 40.3063484,37.5803212 43.5376974,35.2188801 C45.6919301,33.644586 46.3651278,31.5580889 45.5572905,28.9593886 C46.3651278,26.8352066 46.9036859,25.6419244 47.172965,25.3795421 Z" id="Path-2" fill="#3C526D"></path>
								<path d="M44.4467609,22.3384615 C43.5721605,23.9953 43.1121767,25.2172837 43.0668094,26.0044127 C42.9987584,27.1851061 43.1076497,27.6083218 43.6325313,28.2031425 C43.9824524,28.5996897 44.7101857,29.0194587 45.8157312,29.4624498 C45.313309,30.4000993 45.0620979,30.868924 45.0620979,30.868924 C45.0620979,30.868924 46.1776098,35.2044629 48.0981732,35.4430093 C49.3785488,35.6020403 49.584527,33.1111151 48.7161077,27.9702338 C49.0956052,28.3654459 49.3802284,28.5136504 49.5699771,28.4148474 C49.8546002,28.2666429 50.4238465,27.5256202 50.2815349,26.7845975 C50.1392234,26.0435749 49.7122887,25.8953703 49.285354,26.0435749 C49.0007309,26.1423779 48.8109821,26.3893854 48.7161077,26.7845975 C48.8109821,25.2037492 48.4789218,24.0675144 47.7199268,23.3758933 C46.9609318,22.6842721 45.8698765,22.3384615 44.4467609,22.3384615 Z" id="Path" fill="#94C9FF" transform="translate(46.676308, 28.894314) scale(-1, 1) rotate(-345.000000) translate(-46.676308, -28.894314) "></path>
							</g>
							<g id="spark" transform="translate(57.975060, 1.704545)" stroke="#FFBF06" stroke-linecap="round">
								<path d="M3.33602725,4.38136107 L5.79007282,0.736275162" id="Path-13"></path>
								<path d="M8.02345292,4.22588721 C7.2794171,4.22588721 6.53538128,4.39949556 5.79134546,4.74671228 C5.04730964,5.093929 4.48928277,5.44114571 4.11726486,5.78836243" id="Path-14"></path>
								<path d="M3.63600265,1.36260174 C2.89196682,1.36260174 2.147931,1.5362101 1.40389518,1.88342682 C0.659859364,2.23064354 0.101832499,2.57786025 -0.270185411,2.92507697" id="Path-14" transform="translate(1.682909, 2.143839) scale(-1, 1) rotate(-60.000000) translate(-1.682909, -2.143839) "></path>
							</g>
							<g id="man" transform="translate(28.796703, 42.131868) scale(-1, 1) translate(-28.796703, -42.131868) translate(0.296703, 0.131868)">
								<path d="M20.6938278,22.1224064 C20.6938278,20.1439798 19.081794,18.9569239 17.4697603,18.5612386 C15.8577265,18.1655532 14.9398902,18.6660975 14.2456928,18.5612386 C13.7828944,18.4913326 13.379886,18.2275424 13.0366674,17.7698679 C12.7679952,17.7698679 12.7679952,18.1655532 13.0366674,18.9569239 C13.3053397,19.7482945 14.3896243,20.6715603 16.2895213,21.7267211 L16.7644955,25.3846154 C17.2804729,24.7692308 17.6923077,24.6153846 18,24.9230769 C18.3076923,25.2307692 18.3076923,25.5384615 18,25.8461538 C19.7958852,24.6826066 20.6938278,23.4413575 20.6938278,22.1224064 Z" id="Path-8" fill="#010A2D"></path>
								<path d="M56.1101175,62.451906 C55.564303,62.2231342 54.7455813,62.1468769 53.5857256,62.2231342 C52.4258698,62.2993915 51.0013895,63.1380831 51.577176,63.5956959 C52.1529626,64.0533086 56.0418907,63.9771205 56.6559319,63.5195078 C57.2699732,63.061895 56.6559319,62.6806778 56.1101175,62.451906 Z" id="Path-10" fill="#010A2D" transform="translate(54.178572, 63.048858) rotate(-45.000000) translate(-54.178572, -63.048858) "></path>
								<path d="M39.4679831,61.0335194 C38.9903955,60.850502 38.274014,60.7894962 37.2591402,60.850502 C36.2442665,60.9115078 34.9978461,61.5824611 35.5016594,61.9485513 C36.0054726,62.3146415 39.4082847,62.253691 39.9455708,61.8876008 C40.4828569,61.5215106 39.9455708,61.2165369 39.4679831,61.0335194 Z" id="Path-10" fill="#010A2D" transform="translate(37.777881, 61.511081) rotate(-45.000000) translate(-37.777881, -61.511081) "></path>
								<path d="M38.9909834,63.2197224 C40.4453407,57.7823392 41.1725194,52.813242 41.1725194,48.3124308 C41.1725194,47.3506956 41.1665957,46.439004 41.1547482,45.577356 C41.1256835,43.4635119 41.0096166,40.7079964 40.8065476,37.3108096 C40.9839235,36.8064434 41.0738091,36.3962335 41.0762044,36.0801799 C41.0797974,35.6060994 41.1065165,35.2033109 41.1848772,34.2319858 C41.2371177,33.5844358 41.08081,33.9111718 40.7159542,35.2121938 C40.8828567,33.909292 40.8959549,33.2219353 40.7552489,33.1501237 C40.6609482,33.1019959 40.517962,33.7528069 40.3262902,35.1025566 C40.367904,33.7753712 40.3293987,33.131082 40.2107743,33.169689 C40.0328377,33.2275994 39.9232666,35.1943136 39.9232666,35.1943136 C39.9232666,35.1943136 39.9542262,33.6336484 39.8762306,33.5938421 C39.7347795,33.5216504 39.6865745,35.0996018 39.5433691,35.3573626 C39.5199599,35.3994975 39.540375,34.5307426 39.3005456,34.6087964 C39.0607162,34.6868502 39.2052323,36.2555962 39.3101978,36.4578901 C39.4151633,36.6601841 39.6439622,36.9630096 39.648905,37.0515829 C39.7296437,38.4983952 38.2202849,48.4550824 37.2037111,51.6771695 C36.5259953,53.8252275 35.00898,57.62322 32.6526651,63.0711469 L38.9909834,63.2197224 Z" id="Path-5" fill="#94C9FF" transform="translate(36.923678, 48.183680) rotate(-252.000000) translate(-36.923678, -48.183680) "></path>
								<path d="M8.160345,29.3886277 C9.45459146,25.2176201 10.1017147,20.9162686 10.1017147,16.484573 C10.1017147,12.0528775 9.71344075,8.01221389 8.93689288,4.36258226 C9.19574217,3.84120631 9.19574217,3.31983037 8.93689288,2.79845442 C8.54861894,2.0163905 6.99552318,-0.139569513 6.99552318,0.452262657 C6.99552318,0.518533648 7.77207106,1.62535854 7.77207106,1.62535854 C7.77207106,1.62535854 6.00446324,-0.370840915 6.2189753,0.0612306968 C6.60724924,0.843294617 7.36813781,1.52368111 7.38379712,1.62535854 C7.39839677,1.72015552 5.83070136,-0.263530272 5.83070136,0.0612306968 C5.83070136,0.385991666 7.28569936,2.04829302 7.21663362,2.0163905 C7.14931162,1.98529344 5.44242742,0.127501688 5.44242742,0.452262657 C5.44242742,0.777023626 6.2189753,1.62535854 6.99552318,2.40742246 C7.77207106,3.18948638 5.44242742,1.62535854 6.2189753,2.40742246 C6.99552318,3.18948638 6.60724924,2.79845442 6.99552318,3.18948638 C7.38379712,3.58051834 8.160345,3.9715503 8.160345,4.75361422 C8.160345,5.53567814 6.60724924,14.1383813 5.44242742,17.2666369 C4.66587955,19.3521407 3.37163308,22.3500524 1.55968803,26.260372 L8.160345,29.3886277 Z" id="Path-5" fill="#94C9FF" transform="translate(5.830701, 14.694314) scale(-1, 1) translate(-5.830701, -14.694314) "></path>
								<path d="M3.60977443,64.7162564 C5.169448,68.3456459 7.24901277,71.8454143 9.84846873,75.2155616 C12.4479247,78.585709 15.5672718,81.3077511 19.2065102,83.3816879 C24.4054221,82.0854774 28.0446604,79.6226774 30.1242252,75.993288 C32.2037899,72.3638985 34.4133275,68.0864038 36.7528379,63.1608038 L35.9730011,62.7719406 L23.8855309,72.921269 L13.7476527,60.8276248 L3.60977443,64.7162564 Z" id="Path-7" fill="#33465D"></path>
								<path d="M39.3670886,55.0182449 C35.089855,60.9949293 32.1683517,64.762839 30.6025787,66.321974 C29.0368057,67.881109 26.8695467,69.7000999 24.1008017,71.7789467 L9.22595806,64.762839 L8.05162829,65.1526227 C11.368578,70.2197965 14.1086808,73.7278503 16.2719366,75.6767843 C18.4351925,77.6257182 21.1752952,79.0549254 24.492245,79.9644057 C31.2772614,77.8855589 36.6269858,75.5468564 40.5414184,72.9482979 C46.4130672,69.0504603 51.8932727,65.5424065 53.0676025,63.5934877 C53.850489,62.2942085 49.283651,59.4357942 39.3670886,55.0182449 Z" id="Path-6" fill="#3C526D" transform="translate(30.602579, 67.491325) scale(-1, 1) translate(-30.602579, -67.491325) "></path>
								<path d="M9.5647873,31.722696 L0.192963768,40.3045879 L0.192963768,47.3261359 L4.09789024,44.9856199 C3.83756181,46.5459639 3.57723338,47.9762792 3.31690495,49.2765659 C3.05657651,50.5768526 2.53591965,52.1371965 1.75493436,53.9575979 C4.09789024,57.3383432 6.70117456,59.8088878 9.5647873,61.3692318 C12.4284,62.9295758 16.4634907,64.2298625 21.6700594,65.2700918 C23.7526868,58.9169135 24.7940005,54.1058529 24.7940005,50.8369099 C24.7940005,41.9772471 21.6700594,33.1724916 21.6700594,32.502868 C21.6700594,31.4626387 21.9303878,30.0323233 22.4510447,28.211922 C20.8890741,27.6918074 19.5874319,27.041664 18.5461182,26.261492 C17.5048045,25.48132 16.593655,24.701148 15.8126697,23.9209761 L12.6887285,27.821836 L9.5647873,31.722696 Z" id="Path-3" fill="#FFBF06" transform="translate(12.493482, 44.595534) scale(-1, 1) translate(-12.493482, -44.595534) "></path>
								<path d="M12.1850505,20.2021006 C11.3050741,21.7294288 10.8426527,22.8623596 10.7977861,23.6008928 C10.7304863,24.7086927 10.8381756,25.10578 11.3572638,25.6638777 C11.7033226,26.0359428 12.4230235,26.4297962 13.5163664,26.8454379 C13.0194897,27.7251989 12.7710514,28.1650794 12.7710514,28.1650794 C12.7710514,28.1650794 13.8742507,32.2329511 15.7736157,32.4567702 C17.0398589,32.6059829 17.2435636,30.2688422 16.3847296,25.4453482 C16.7600384,25.8161608 17.0415199,25.9552155 17.2291743,25.8625123 C17.5106559,25.7234576 18.073619,25.0281842 17.9328782,24.3329107 C17.7921374,23.6376372 17.3699151,23.4985825 16.9476928,23.6376372 C16.6662112,23.7303404 16.4785568,23.9620982 16.3847296,24.3329107 C16.6579982,22.3483474 16.3090023,21.3269167 15.3377418,21.2686186 C14.3664814,21.2103205 13.3155843,20.8548145 12.1850505,20.2021006 Z" id="Path" fill="#94C9FF" transform="translate(14.367444, 26.332793) rotate(-345.000000) translate(-14.367444, -26.332793) "></path>
							</g>
						</g>
					</g>
				</g>
			</g>
		</g>
	</g>
</svg>
