<svg width="24" height="24" viewBox="0 0 24 24" fill="none" xmlns="http://www.w3.org/2000/svg">
	<path fill-rule="evenodd" clip-rule="evenodd" d="M22 12C22 17.5228 17.5228 22 12 22C6.47715 22 2 17.5228 2 12C2 6.47715 6.47715 2 12 2C17.5228 2 22 6.47715 22 12ZM24 12C24 18.6274 18.6274 24 12 24C5.37258 24 0 18.6274 0 12C0 5.37258 5.37258 0 12 0C18.6274 0 24 5.37258 24 12ZM5.51028 12C5.51029 11.4477 5.958 11 6.51029 11L10.9999 11L10.9999 6.51037C10.9999 5.95809 11.4476 5.51037 11.9999 5.51037C12.5522 5.51037 12.9999 5.95808 12.9999 6.51036L12.9999 11L17.4896 11.0001C18.0419 11.0001 18.4896 11.4478 18.4896 12.0001C18.4896 12.5523 18.0419 13.0001 17.4896 13.0001L12.9999 13L13 17.4897C13 18.042 12.5523 18.4897 12 18.4897C11.4477 18.4897 11 18.042 11 17.4897L10.9999 13L6.51028 13C5.95799 13 5.51028 12.5523 5.51028 12Z" fill="#ADB1B5"/>
</svg>