<svg width="24" height="24" viewBox="0 0 24 24" fill="none" xmlns="http://www.w3.org/2000/svg">
<rect width="24" height="24" rx="4" fill="#77BA1B"/>
<path fill-rule="evenodd" clip-rule="evenodd" d="M6 8C6 7.44772 6.44772 7 7 7H17C17.5523 7 18 7.44772 18 8V13C18 13.5523 17.5523 14 17 14H14.8293C14.4175 12.8348 13.3062 12 12 12C10.6938 12 9.58254 12.8348 9.17071 14H7C6.44772 14 6 13.5523 6 13V8ZM13 15C13 14.4477 12.5523 14 12 14C11.4477 14 11 14.4477 11 15V17H9C8.44772 17 8 17.4477 8 18C8 18.5523 8.44772 19 9 19H15C15.5523 19 16 18.5523 16 18C16 17.4477 15.5523 17 15 17H13V15Z" fill="white"/>
</svg>
