<svg width="25" height="24" viewBox="0 0 25 24" fill="none" xmlns="http://www.w3.org/2000/svg">
<rect x="0.09375" width="24" height="24" rx="4" fill="#00C1AE"/>
<circle cx="8.21875" cy="11.0938" r="2" fill="white"/>
<path fill-rule="evenodd" clip-rule="evenodd" d="M8.21875 10.0938C7.66647 10.0938 7.21875 10.5415 7.21875 11.0938C7.21875 11.646 7.66647 12.0938 8.21875 12.0938C8.77103 12.0938 9.21875 11.646 9.21875 11.0938C9.21875 10.5415 8.77103 10.0938 8.21875 10.0938ZM5.21875 11.0938C5.21875 9.4369 6.5619 8.09375 8.21875 8.09375C9.8756 8.09375 11.2188 9.4369 11.2188 11.0938C11.2188 12.7506 9.8756 14.0938 8.21875 14.0938C6.5619 14.0938 5.21875 12.7506 5.21875 11.0938ZM14.2188 11.0938C14.2188 10.5415 14.6665 10.0938 15.2188 10.0938H19.6562C20.2085 10.0938 20.6562 10.5415 20.6562 11.0938C20.6562 11.646 20.2085 12.0938 19.6562 12.0938H15.2188C14.6665 12.0938 14.2188 11.646 14.2188 11.0938ZM15.2188 14.0938C14.6665 14.0938 14.2188 14.5415 14.2188 15.0938C14.2188 15.646 14.6665 16.0938 15.2188 16.0938H18.2188C18.771 16.0938 19.2188 15.646 19.2188 15.0938C19.2188 14.5415 18.771 14.0938 18.2188 14.0938H15.2188Z" fill="white"/>
<path d="M8.21875 14.0938C6.5619 14.0938 5.21875 15.4369 5.21875 17.0938H11.2188C11.2188 15.4369 9.8756 14.0938 8.21875 14.0938Z" fill="white" stroke="white" stroke-width="2" stroke-linecap="round" stroke-linejoin="round"/>
</svg>
