<svg width="26" height="24" viewBox="0 0 26 24" fill="none" xmlns="http://www.w3.org/2000/svg">
	<rect x="0.0981445" width="25.6471" height="24" rx="4" fill="#6F4CA1"/>
	<path d="M11.21 12.592L7.24011 16.4652C6.91996 16.7776 6.91996 17.4023 7.24011 17.7146C7.56026 18.027 8.20057 18.027 8.52072 17.7146L12.5546 13.0293" fill="white"/>
	<path d="M13.8674 11.4674C14.2516 11.0631 14.6677 10.6241 14.6677 10.6241C15.212 11.1551 16.0259 11.0631 16.7167 10.4054C17.4075 9.74775 18.5575 8.27803 18.6376 8.09396C18.7177 7.90989 18.8626 7.65752 18.6376 7.43801C18.4455 7.25059 18.1574 7.25059 17.9653 7.43801C17.9333 7.46924 17.9333 7.46924 17.9653 7.43801C18.1574 7.25059 18.1574 6.96947 17.9653 6.78206C17.7732 6.59464 17.4851 6.59464 17.293 6.78206C17.261 6.81329 17.261 6.81329 17.293 6.78206C17.4851 6.59464 17.4851 6.31352 17.293 6.1261C17.1009 5.93869 16.8599 5.97841 16.6207 6.1261C16.3814 6.27379 14.2516 8.00025 14.2516 8.00025C13.6753 8.46879 13.4832 9.46834 14.0274 9.99935C14.0274 9.99935 13.5173 10.4221 13.131 10.7802" fill="white"/>
	<path d="M7.88025 6.15723L8.47123 5.51196C8.28001 5.33683 8.02097 5.25553 7.76397 5.28999C7.50697 5.32445 7.2785 5.47111 7.14016 5.69043C6.74156 6.32239 6.6743 7.06436 6.76581 7.70921C6.85786 8.3578 7.12159 9.00076 7.50668 9.50172C7.51423 9.51154 7.52198 9.5212 7.52994 9.53069L10.3978 12.9505C10.6322 13.2548 10.9586 13.4818 11.2664 13.632C11.5844 13.7871 11.9724 13.9041 12.3624 13.9041C12.5762 13.9041 12.8605 13.9051 13.1155 13.9366C13.216 13.949 13.2921 13.9639 13.3449 13.9782L16.4586 18.2314C16.4749 18.2536 16.4922 18.275 16.5105 18.2956C16.9737 18.8171 17.6284 18.9019 18.0785 18.8682C18.514 18.8355 19.0355 18.6734 19.3764 18.3408C19.3887 18.3288 19.4006 18.3165 19.4122 18.3038C19.5985 18.0993 19.7019 17.8518 19.7609 17.66C19.8249 17.4523 19.8625 17.2255 19.8723 17.0013C19.8892 16.613 19.8306 15.9749 19.3802 15.5301C19.1827 15.335 16.4395 12.8163 13.7775 10.3751C12.4395 9.14805 11.113 7.93227 10.1209 7.02326L8.92406 5.92675L8.5895 5.62029L8.50143 5.53962L8.47886 5.51895L8.47315 5.51372L8.47171 5.5124L8.47135 5.51207C8.47127 5.512 8.47123 5.51196 7.88025 6.15723ZM13.4092 14.0002C13.409 14.0002 13.4061 13.9991 13.4009 13.9963C13.4068 13.9987 13.4093 14.0001 13.4092 14.0002Z" fill="white" stroke="#6F4CA1" stroke-width="1.75" stroke-linecap="round" stroke-linejoin="round"/>
</svg>